<svg id="Layer_1" data-name="Layer 1" xmlns="http://www.w3.org/2000/svg" viewBox="0 0 402.79 453.2"><defs><style>.cls-1{fill:#371b46;}.cls-2{fill:#2b1a3c;}.cls-3{fill:#b9aebe;}.cls-4{fill:#fefefe;}.cls-5{fill:#ec1b24;}.cls-6{fill:#fed453;}.cls-7{fill:#c3b8c6;}.cls-8{fill:#ccc5cf;}.cls-9{fill:#ae1a30;}.cls-10{fill:#ccc5d0;}.cls-11{fill:#fcfbfc;}.cls-12{fill:#e71d27;}.cls-13{fill:#fdfdfd;}.cls-14{fill:#eb1b24;}.cls-15{fill:#faf7fb;}.cls-16{fill:#ccc4cf;}.cls-17{fill:#b73a31;}.cls-18{fill:#ad1b31;}.cls-19{fill:#ad1a30;}.cls-20{fill:#e91c25;}.cls-21{fill:#fdfcfc;}.cls-22{fill:#fcfcfc;}.cls-23{fill:#ccc4ce;}.cls-24{fill:#f8f5f8;}.cls-25{fill:#b9abbf;}.cls-26{fill:#cbc4cf;}.cls-27{fill:#1576bb;}.cls-28{fill:#fbfafb;}.cls-29{fill:#08a6f6;}.cls-30{fill:#cdc5d2;}.cls-31{fill:#faf9fb;}.cls-32{fill:#ba5d33;}.cls-33{fill:#f29ca6;}.cls-34{fill:#f49da6;}.cls-35{fill:#f4c091;}.cls-36{fill:#fbfafa;}.cls-37{fill:#cac2ce;}.cls-38{fill:#f096a4;}.cls-39{fill:#c1b6c5;}.cls-40{fill:#f099a6;}.cls-41{fill:#b7abbc;}.cls-42{fill:#b6aabb;}.cls-43{fill:#b8acbd;}.cls-44{fill:#faf8fa;}.cls-45{fill:#309ee1;}.cls-46{fill:#95d8f5;}.cls-47{fill:#1699e2;}.cls-48{fill:#cbc3d1;}.cls-49{fill:#ea948e;}.cls-50{fill:#b66b7e;}.cls-51{fill:#070011;}.cls-52{fill:#080112;}.cls-53{fill:#090112;}.cls-54{fill:#0e031b;}.cls-55{fill:#d8d0df;}.cls-56{fill:#b6a9bf;}.cls-57{fill:#090115;}.cls-58{fill:#0f021e;}.cls-59{fill:#070012;}.cls-60{fill:#08000e;}.cls-61{fill:#a496ae;}.cls-62{fill:#0b0217;}.cls-63{fill:#080013;}.cls-64{fill:#b1d7ea;}.cls-65{fill:#b8a9c0;}.cls-66{fill:#8e7a9b;}.cls-67{fill:#af9cba;}.cls-68{fill:#f04850;}.cls-69{fill:#f1474e;}.cls-70{fill:#ef4d27;}.cls-71{fill:#f26c29;}.cls-72{fill:#ec6028;}.cls-73{fill:#e91d25;}.cls-74{fill:#6bd5ef;}.cls-75{fill:#5a92b2;}.cls-76{fill:#98ddf2;}</style></defs><path class="cls-1" d="M745.43,253.45c0,1.83,1.15.75,1.62.53,3.32-1.54,6.57-3.22,9.87-4.81,6.45-3.11,11.51-7.14,10.89-15.34a12.71,12.71,0,0,1,1-4.35c1-3.12,2.32-6,5.93-6.74s6.62,1.2,8.45,4.12,3.13,3.15,5.51.73a28.88,28.88,0,0,1,8.29-5.5c7.88-3.77,15.25-1.25,19.31,6.53,6.47,12.42,3.72,33-6.29,44.61-14.07,16.28-32.39,25.79-52.55,32.16a131.66,131.66,0,0,1-26.09,5.26c2.38,9.25,6.66,18.09,5.54,28-.24,2,.79,3,2.49,3.75,10.73,5,21.48,9.9,30.85,17.29,1.42,1.12,3.18.81,4.81.88,27.51,1.16,53.71,7.19,77.82,20.95,7.34,4.18,8.94,8.14,6.44,16.14C848.9,431,829,457.92,802.11,479.62,762.92,511.28,718,529.68,667.84,535c-4.79.51-10.13-.72-14.34,1-4.38,1.79-4.08,8.11-6.79,12-7,10.16-16.85,16.36-28,20.8A118.53,118.53,0,0,1,599,574.43c-2.16.46-4.46.92-5.79-1.44-1.13-2,0-3.76,1.25-5.46,6.69-9.39,12.72-19.15,16.19-30.25,1.92-6.17,1.77-6.5-4.29-5.09-12.07,2.83-21.25-.67-27.45-12.76-4.18,14.21-12.43,23.34-25.18,28.33-9.06,3.54-18.21,3.33-27.47,1-9.67-2.43-19.11-5.86-29.13-6.79-11.2-1-21.88,1-32.27,5.07-1.09.42-2.13,1-3.25,1.28-1.47.4-3.12.71-3.81-1.17-.62-1.7.34-2.71,1.89-3.49,3.86-1.93,7.76-3.83,11.47-6,11.93-7.1,20.47-17.35,27-29.47,2.44-4.55,4.9-9.11,7.71-13.42,13-19.91,35.24-25.65,56.25-14.66a16.82,16.82,0,0,0,1.87.64c-.28-6.14-.4-12,3.55-17.08,3.69-4.7,9.44-6.74,13.89-11-8.1-6.56-17.53-9.68-27.19-12.23-4-1.06-8.11-1.87-12.18-2.69-1.6-.33-2.88-.87-3.3-2.58a3.61,3.61,0,0,1,1.7-4.29c16.13-9.88,32.75-18.05,52.57-14.81a34.16,34.16,0,0,1,12.54,4.69c1.42.87,2.47,1.3,3.91-.06,6.41-6.06,13.57-11.19,21.07-16.69-4.55-2.45-8.75-4.62-12.85-7-4.83-2.76-9.32-6.12-12-11.06-2-3.72-4.54-5.72-8.65-6.44a43.83,43.83,0,0,1-8.52-2.81c-15.4-6.16-21.36-14.62-21.41-31.24a158,158,0,0,1,11.68-60.91c7.79-19,16.42-24.31,37-23.15,3.07.17,6.14.52,10.08.86-7.68-7.7-13.59-15.68-17.77-24.83-.88-1.94-2.33-1.94-4-2.23-10.57-1.85-16.64-8.76-17.27-19.49-.3-5-.8-10-.9-15-.19-9.52,5.12-17.12,14-19.46,3.13-.82,4.16-2.47,5.11-5.16A81.31,81.31,0,0,1,725.4,134.24a77.88,77.88,0,0,1,29.09,32.19c1.36,2.78,2.92,4.22,6.19,4.69a18.25,18.25,0,0,1,15.82,16.33,166.36,166.36,0,0,1,1.25,18.93c.06,8.77-5.57,15.86-14.13,18.46-1.74.53-3.65.64-4.43,2.69-3.84-4.91-3.22-7.68,2.58-11.49,4.34.29,7-1.64,8.21-6.62a39.56,39.56,0,0,0,.23-15.82c-.54-3.71-.33-7.68-3.17-10.66-1.84-1.92-3.36-4.62-6.77-3.75,0,5.82,3.42,11.4.53,18,1.37-1.66,0-3.41,1.75-4.09,2.4,1.35,1.81,3.57,1.67,5.66a42.1,42.1,0,0,0-1,5.38c-.18,1.18-.64,2.41-2,2.48s-1.89-1.15-2.18-2.32a27.76,27.76,0,0,1-.55-5.45c-.45-10.23-5.21-18.63-11.2-27.49-1.42,4.2.09,7.51.1,10.82,0,3.5,1,7.64-4.2,8.73a2.87,2.87,0,0,1-1-.17c-7.63-3.58-9.66-3.37-13.24,1.37-4.3,5.7-4.52,13.08-.51,18,.95,1.15,2.16,2.07,3.09,3.23,1.18.92,2.54.57,3.85.54,4.41-.09,5.54,1.14,3.91,5.28-3.75,9.51-8.37,18.4-17.08,24.62a128.3,128.3,0,0,1-58.38,22.83c-3.61.49-6.06,2.24-8.6,4.3-3.74.67-6.61-1.57-9.76-2.89-1.14-.63-2.37-1-3.57-1.56,1.08.61,2.31.9,3.38,1.55,23.88,11.71,47.8,12.44,71.77.28a29,29,0,0,0,6.62-4.36c6.11-6.23,14.49-9.33,21-15.09.69-.61,1.77-1.19,2.63-.14.66.81,0,1.56-.42,2.23S745.4,252.33,745.43,253.45Z" transform="translate(-457.63 -121.6)"/><path class="cls-2" d="M743,190.54c4.77-2.44,3.24-6.81,2.7-10.43a72,72,0,0,1-.58-8.4c0-1,0-2.16,1.1-2.57s1.78.61,2.36,1.37c5.16,6.61,8.39,14.35,11,22.07,1.29,3.77.55,8.64.83,13.76,2.75-2.21.58-5.36,2.53-7,2.45,2.54,1.59,5.67,1.56,8.66-.37,2.92-.21,6-2.57,8.32-3.79,3-5,6.7-2.77,11.21a66.83,66.83,0,0,1-13.76,25.92c-2.19-2.09,2.37-2.45.78-4.73-6,6.69-14.79,9.38-21.12,15.6-11.49,6.9-24.12,10-37.34,10.46-8.58.32-17.24.75-25.73-1.24-2.52-.59-5.34-.68-6.89-3.33.83-4.31,4.33-4.48,7.64-4.89,22.87-2.82,43.68-10.9,61.8-25.17,7.24-5.7,10.69-14.23,13.95-22.64.83-2.16.55-3.21-2.17-2.46a7.07,7.07,0,0,1-5.23-.15s0-.31,0-.45a1.86,1.86,0,0,1,.33-.36c10.9-5,13.17-9.38,11.12-21.22A2.7,2.7,0,0,1,743,190.54Z" transform="translate(-457.63 -121.6)"/><path class="cls-3" d="M710.9,471c.32-1.63.61-3.27,1-4.89.06-.28.39-.5.74-.91,9.45,7.65,20.17,11.73,32.38,9.67,19.15-3.23,29.9-15.25,33.93-33.83,2.18,1.83,1.56,4.27,1.11,6.46-1.83,9-5.5,17-11.1,22.11,5.23-3.33,12-7.51,18.5-12,4.63-3.14,8.4-7.54,13.8-9.56q2.29,9.74,4.59,19.49a1.32,1.32,0,0,1-.75,1.61c-4.57.57-6.69,4.69-9.86,7.15-34.21,26.63-73,42.79-115.48,49.95-21.92,3.69-44,3.71-65.74-1.93-4.17-4.29-7.32-9.34-10.65-14.27-1.41-2.09-1.19-3,1.38-3.66,7.27-1.78,13.24-5.85,18.51-11,17.23,9.1,35.56,8.36,54,5.92A235,235,0,0,0,736.7,485a58.78,58.78,0,0,1,9.53-3.14c-2.74,1.12-6.53.82-10.28.87a33.37,33.37,0,0,1-11.25-2,40.94,40.94,0,0,1-10.58-5.49C712.61,474.2,711.26,473,710.9,471Z" transform="translate(-457.63 -121.6)"/><path class="cls-4" d="M710.9,471c12.19,9.71,22.36,12.23,39,9.3-5.71,3.9-11.47,5.72-17,7.83-27,10.32-54.73,17.19-84,16.06-8.4-.32-16.29-2.83-23.93-6.18a2.51,2.51,0,0,1-1.85-2.62,66.66,66.66,0,0,0,11.16-15.77c1.61-3.07.8-4.47-2.25-5.38-4-1.19-7.83-2.71-12-2.92-5.64.3-11.28-.13-16.92,0l-5,.9a2.63,2.63,0,0,1-3.78-1.18c-3-5.23-6.44-10.34-6.2-16.79,7-12.32,17.14-21.89,27.47-31.25a121.91,121.91,0,0,1,16.53-12.76c1.58-1.11,2.88-.19,4,.74,6.18,5,10.42,11.11,10.36,19.52-.05,7.48,0,15,0,22.43a35.87,35.87,0,0,0,4.11,16.3c8.79,17.18,25.61,22.93,43.42,15C701.13,481.66,708,478.78,710.9,471Z" transform="translate(-457.63 -121.6)"/><path class="cls-4" d="M656.92,399c4.36-12.08,16.56-20.93,29-21.7,6.94-.43,11.69,2.3,15.53,7.76,3.31,4.71,4.67,10.15,6.49,15.43A25.63,25.63,0,0,1,708,413.1c-2.34,9.28-7.17,16.61-16.12,20.81-5,2.32-10.12,2.93-16.79,1.91,6.06,5.52,12,5.76,17.84,3.57,3.82-1.43,5.15-.19,6.62,2.91,3.35,7.08,6.53,14.17,6.44,22.23,0,3.46-.89,6.56-3.9,8.69-14.18,6.32-31.32,2.5-39.12-8.75-4.34-6.26-4.86-13.36-4.09-20.58,1-9.09,1.51-18.21,2.46-27.3a21.44,21.44,0,0,0-2.81-13C657.71,402.18,656.65,400.84,656.92,399Z" transform="translate(-457.63 -121.6)"/><path class="cls-4" d="M654.22,337.23c-5-4.29-8.68-9.92-14.4-13.61-1.2,4.69-1.22,4.83-6.22,4.25-7.21-.83-14.5-1.24-21.44-3.65-1.32-1.43-.95-3.1-.55-4.71,2.48-10,5.47-19.87,10.45-29a20.49,20.49,0,0,1,26-9.26A108.54,108.54,0,0,0,661.2,286c2.9.77,4.59,2.29,4.94,5.25,6.13,11.19,15.77,19,26.17,26.93-13.33,4.7-18.87,15.79-24.2,27.07C662.33,344.59,658.67,340.23,654.22,337.23Z" transform="translate(-457.63 -121.6)"/><path class="cls-4" d="M673.89,346c3-7.87,7-15.14,14.26-19.86,6.52-4.26,9.82-4.2,15.22-.14,14.17,10.66,29.59,19.62,43.1,31.2a38.58,38.58,0,0,1,7.82,8.32c1.33,2.1,2.59,4.33,1.08,6.93-8.48,9.76-23.31,13.11-35.19,3.61-8.92-7.15-17.65-14.58-28.46-19-4.91-2-10-3.7-14.61-6.31C675.26,349.74,673,348.89,673.89,346Z" transform="translate(-457.63 -121.6)"/><path class="cls-5" d="M802.15,429.23a289.24,289.24,0,0,0-25.91-56.71,21,21,0,0,1-1.28-3.17c1.35-1.63,3.26-1.64,5-1.48,22.69,1.95,44.65,6.69,65.08,17.19a11.23,11.23,0,0,1,3.33,2.14c1.33,2.3.62,4.44-.47,6.59-9.24,18.24-22,33.78-36.81,47.71-1.7,1.59-3.57,3.44-5.15-.18v0C804.45,437.36,804.15,433,802.15,429.23Z" transform="translate(-457.63 -121.6)"/><path class="cls-4" d="M761,289.41c-4.52-9.87-5.12-20.48-5.89-31.06-.11-1.48.87-2,1.89-2.57,2-1.14,4-2.39,6.06-3.43,6.53-3.28,10.65-7.9,10.3-15.83-.13-2.73-.13-7.34,3-7.53,2.95-.18,4.45,4.13,5.36,7.06,1.34,4.38,1.63,9.16,5.94,12.32,1.17-1,.48-2.18.39-3.18-.27-3.05-2.37-6.56,0-9,4.24-4.38,8.85-8.8,15.18-9.92,3.95-.69,6.48,2.06,8.06,5.43,1,2.22,1.76,4.59,2.62,6.89a24.15,24.15,0,0,1,0,12.71l-1.66,4.1c-9.72,14.95-24.32,23.68-39.93,31C768.76,288,765.24,290.3,761,289.41Z" transform="translate(-457.63 -121.6)"/><path class="cls-6" d="M558.21,484.14c4,2.61,7.92,5,9.18,10.46a8.25,8.25,0,0,1-1.24,6.82c-.66,1.15-1.84,2.24.59,3.36,8.39,3.87,10.08,9.63,5.43,17.79-.49.85-1.19,1.52-1.18,2.57a14.19,14.19,0,0,1-6.52,5.56c-8.32,3.41-16.65,2.27-25,.1-9.73-2.53-19.56-3.95-29.63-2.62-2.27.34-4.59,2-6.79-.17-.24-1.74,1.26-2.18,2.29-2.84a48,48,0,0,0,13.09-12.67,98.86,98.86,0,0,0,8.11-13.11,70.68,70.68,0,0,1,12.58-16.58C545.71,480.06,552,481.1,558.21,484.14Z" transform="translate(-457.63 -121.6)"/><path class="cls-4" d="M801.22,448.11c-8.85,8.6-19.29,15-29.73,21.39a42.51,42.51,0,0,1-6.71,3.38c8.52-9,14.74-18.91,14.13-31.82.56-22.55-10-38.23-29.43-43.41-3-.81-6.19-1-9.3-1.56-.27-2.83,2.18-2.86,3.83-3.59,4.82-2.1,9.52-4.32,11.94-9.44,3.33-4.4,6.7-8.79,5.66-14.85-.17-1-.06-1.67,1-1.75s2.37-.41,3.17.81,1.42,2.25,2.13,3.37A261.51,261.51,0,0,1,801.22,448.11Z" transform="translate(-457.63 -121.6)"/><path class="cls-4" d="M675.17,367.34c1.77,3.54,6.2,2.49,9.08,5.53-14.2,2.46-24.6,9.82-31,22.48-1.43,1-2.9.59-4.29,0a81.35,81.35,0,0,0-13.93-3.8c-14.58-3-21.91-12.82-24.95-26.55-2.48-11.16-1.92-11.65,9.31-10.1a105.17,105.17,0,0,0,28.3-.06c6.35-.84,6.44-.78,8.14,5.37a5.38,5.38,0,0,0,5.28,4.4c3.15.21,6.32-.08,9.46.19C672.39,365,674.76,364.5,675.17,367.34Z" transform="translate(-457.63 -121.6)"/><path class="cls-4" d="M720.09,291.31c-1.06-.76-.18-2.79-2.69-3.16a53.16,53.16,0,0,0,.22,16.13c.65,4.2-.15,5.48-5,6.15-14.75,2-26.55-2.17-36-13.6-2.09-2.52-5-4.4-7.45-6.58.35-2.67,2.4-1.8,3.85-1.68,24.79,2.11,46.18-5.31,63.93-22.82,1.22-1.21,2.9-1.48,4.05-2.65,1.77-3.86,5.84-2,8.88-3.89.91,10.74,2.06,21,5.47,30.91-.08,2.51-2.19,2.8-3.85,3.11-9,1.69-18.07,2.48-27.18.51A7.4,7.4,0,0,1,720.09,291.31Z" transform="translate(-457.63 -121.6)"/><path class="cls-7" d="M621.93,229.81c-4.08-13.89-5.9-27.55-1.42-41.32a29.35,29.35,0,0,1,12.88-16,84.21,84.21,0,0,1,45.36-13c.89,0,2-.35,3.18,1.42C645.94,169.89,630.17,196.53,621.93,229.81Z" transform="translate(-457.63 -121.6)"/><path class="cls-8" d="M675.17,367.34c-4.43-2.06-9.12-.69-13.68-1-5.37-.35-7.07-1.67-7.28-7.17-.1-2.65-.34-3.62-3.64-3.14-12.7,1.85-25.44,2.25-38.07-.79-1.23-.29-2.11-.53-2.37,1.32-1.43,10,8.36,27.19,18,31.13a34.34,34.34,0,0,0,6.59,2.23,102.24,102.24,0,0,1,18.58,5.42c-1.2,3.78-2.6,7.51-3.07,12.16-8.41-6-17.63-9.21-26.31-13.52-15.35-7.61-19.45-21.26-20.4-36.74-.15-2.49-.07-5-.06-7.49,0-.62.15-1.25.25-2.14,16.39,6.17,33,6,49.71,3,2.22-.41,2.73.35,3.07,2.47,1.06,6.59,3.1,8.48,10,8.41,7.58-.06,14.14,2.44,21,6.79C682.85,368.42,679.1,366.35,675.17,367.34Z" transform="translate(-457.63 -121.6)"/><path class="cls-9" d="M806,441.32c1.48,1.68,2.54,1,4-.35,15-14.21,27.81-30.08,37.36-48.49a11.57,11.57,0,0,0,.87-4.32c.82-1.09,2-.29,3-.61,4.47,2,3.43,6,2.48,9.05-7.66,24.94-21.43,46.17-39.82,64.52-.78.77-1.47,2.12-2.81,1.64s-.75-2-1-3.06Q808,450.51,806,441.32Z" transform="translate(-457.63 -121.6)"/><path class="cls-10" d="M741,263.1c-12.8,14.93-28.83,23.81-48.43,26.33-7.28.93-14.46,1.39-21.71.08-.5-.09-1.12.48-1.69.74-1,.25-3.23-2.87-3,1-.64-.92-1.16-2.52-1.95-2.67-8.3-1.58-15.31-7.42-24.09-7.33-8,.08-14,3.52-17.43,10.9a130.12,130.12,0,0,0-10.51,32c-3.73.12-4.84-1.16-3.7-5.08,5.08-17.48,13.79-33.07,23.95-48,2.14-3.16,3.52-.91,5.13.09,22.79,14.18,46.89,16.81,72.23,8.16a69.88,69.88,0,0,0,22.89-12.94A12.3,12.3,0,0,1,741,263.1Z" transform="translate(-457.63 -121.6)"/><path class="cls-11" d="M690,127.45c8,1.88,16.16,3.29,23.69,7a83.5,83.5,0,0,1,17,11c1,.88,2.66,1.52,2.14,3.58a95.94,95.94,0,0,0-37.8-10.55,199.55,199.55,0,0,1-25.88,0,100,100,0,0,0-41.39,12.31,72.33,72.33,0,0,1,41.11-22.25c1.78-.32,3.54-.76,5.31-1.14A45,45,0,0,1,690,127.45Z" transform="translate(-457.63 -121.6)"/><path class="cls-12" d="M760.91,410.3a28.16,28.16,0,0,1,11.25,18.88c1.66,10.32-.14,19.52-9,26.14-2.06,1.55-4.35,4.06-7.41,1.45-.54-2.78,1.72-4.15,3.09-5.92,10.81-13.93,5.54-32.76-10.92-39a24.8,24.8,0,0,0-28.73,9.34c-6.08,9-5.36,22.42,1.64,30.26a33.53,33.53,0,0,1,3.23,3.81c.56,1.3,2.08,2.68.76,4s-3,.25-4.5-.54A28.64,28.64,0,0,1,708,446.32c-2.65-6.81-3.86-13.48,1-20,2.19-2.93,3.25-6.51,4.14-10.07C722.31,403.56,743.7,397.67,760.91,410.3Z" transform="translate(-457.63 -121.6)"/><path class="cls-8" d="M694.13,484.31c-5.07,5.75-12,5.42-18.46,4.73-19.63-2.1-29.16-18.31-30.43-34.1-.68-8.43.1-17-.13-25.46-.23-9-5.37-15-12.9-19.18,5.36-4.08,11.85-2.29,15.55,4.34,1.93,3.45,2.27,7.22,2.26,11.1,0,8.79-1.58,17.57.17,26.37C654.73,474.9,669.12,485.49,694.13,484.31Z" transform="translate(-457.63 -121.6)"/><path class="cls-13" d="M593,311.41c-5.05-1.3-9.48-4.79-15.38-4,2.53-10.53,5.67-20.37,10.91-29.47,1.14-2,2.15-2.88,4.66-1.78,4.53,2,9.27,3.49,13.93,5.2,1.55,1.77.54,3.42-.33,5a138.72,138.72,0,0,0-9.06,21.4C596.93,310,596.18,312.34,593,311.41Z" transform="translate(-457.63 -121.6)"/><path class="cls-8" d="M673.89,346c.16,2,1.77,2.66,3.29,3.33,5,2.2,10,4.43,15.07,6.57,9.27,3.93,17.23,9.77,25.07,16,14.33,11.49,20.87,11.48,36.3,1.4a18,18,0,0,1,1.75-.89c-7.13,17.11-27.77,20.85-39.28,6.67a38.84,38.84,0,0,0-18.23-13c-7.53-2.58-14.39-6.77-21.42-10.52C671.58,353,671,350.18,673.89,346Z" transform="translate(-457.63 -121.6)"/><path class="cls-14" d="M600.44,428.21c-4.76,5.91-9.55,11.8-14.24,17.75-1,1.26-1.93,1.08-3,.38a83.4,83.4,0,0,0-27.78-11.65c-.54-.13-.94-.87-1.4-1.34-.27-1.68.93-2.42,2.13-3,12-5.3,24.26-9.13,37.58-6.34C596.37,424.6,599.55,424.69,600.44,428.21Z" transform="translate(-457.63 -121.6)"/><path class="cls-15" d="M614,524.38c6.3-.89,12.23,1.55,18.38,2.11a195.3,195.3,0,0,0,42.69-1c29.5-3.77,57.06-13.48,83.36-27a212,212,0,0,0,42.89-28.74c1-.85,2.11-3.34,3.76-.52-27.41,25-59.67,41-94.83,51.79-16.09,4.93-32.66,7.24-49.32,9.06a56.34,56.34,0,0,1-18.64,0c-7.35-1.05-14.71-2-22-3.2C618,526.54,615.55,526.46,614,524.38Z" transform="translate(-457.63 -121.6)"/><path class="cls-16" d="M656.92,399c5.72,5.87,6.17,12.92,5.72,20.72-.69,12-3.95,23.93-1.59,36.07,1.93,10,10.93,17.58,21.3,18.51,6.67.59,13.18-.32,19.73-1.11-9.68,9.29-28,7.26-37.74-4.27-6.5-7.7-9.24-16.75-9.2-26.71.05-9.59,1.32-19.13-.73-28.75C653.38,408.68,654.54,403.59,656.92,399Z" transform="translate(-457.63 -121.6)"/><path class="cls-17" d="M503.47,527.36c1.94,1.57,3.68-.78,5.57-.26,4.24-.24,8.06,1.46,12,2.72,6.15,2,12.59,3.09,18.42,6.07a8.54,8.54,0,0,1,1.45,3c1.62,4.87,1.37,5.29-3.65,6.15-4.42.61-8.62-.58-12.69-1.94A133.46,133.46,0,0,0,487,536.27c.4-4.56,4.5-6.64,6.69-10a3.74,3.74,0,0,1,2.17-.81C498.45,525.84,501.35,525.09,503.47,527.36Z" transform="translate(-457.63 -121.6)"/><path class="cls-18" d="M708,446.32c4.42,4,7.84,9.09,13.45,11.73,1,.46,1.83,1.77,2.84.57.28-.33-.64-1.67-1-2.55,1.73-1,3.21-.05,4.67.68,7.78,3.91,15.54,4.45,23.34,0,1.41-.8,2.92-1.72,4.67-.74,2.38,2.2,4.22-.15,5.6-1.19C768,450,772.7,444,772.1,435.16c-.14-2,0-4,.06-6,3.32,12-.86,22-9.07,30.38-16.65,16.93-45.51,11.28-54.37-10.36A22.09,22.09,0,0,1,708,446.32Z" transform="translate(-457.63 -121.6)"/><path class="cls-16" d="M598.26,361.22c-.2,4.2,1.26,8.17,1.76,12.28-13.52.36-26.39-11.69-26.84-25.16,1.47-.6,1.83.92,2.63,1.48,7,4.85,14.28,3.19,18.86-4,.81-1.26.09-4.62,3.46-3.54A84.89,84.89,0,0,1,598.26,361.22Z" transform="translate(-457.63 -121.6)"/><path class="cls-7" d="M743,190.54c2.73,5.21,2.24,10.47.2,15.73-2.16,5.58-5.55,7.82-11.7,7.82-9.7-4.3-9-19.08-1.45-25.45C734.25,185.07,738.25,185.72,743,190.54Z" transform="translate(-457.63 -121.6)"/><path class="cls-19" d="M626.16,480.14c-2.21,7.44-7.83,12.14-13.73,16.36-9.28,6.64-20,6.49-30.7,5.26-2.4-.28-5,.11-7.28-1.28,1.25-1.4,2.16-3.15,4-4,10.6-2.94,20.3-8.21,30.68-11.72,3.77-1.27,7.27-3.44,11.21-4.08,1.83-.3,0-1.79,1.14-2A3.72,3.72,0,0,1,626.16,480.14Z" transform="translate(-457.63 -121.6)"/><path class="cls-20" d="M642.28,543.36c-5.79,10-15.11,15.54-25.37,19.72-4.38,1.79-8.8,3.67-14.37,4.17L612,550.12c1.09-2.32,2.46-4.08,5.37-4.33,7.5-.64,14.33-3.65,21.21-6.43,1.47-.6,3.12-2.17,4.54-.89C644.9,540.12,642.68,541.73,642.28,543.36Z" transform="translate(-457.63 -121.6)"/><path class="cls-3" d="M761,289.41a113.94,113.94,0,0,0,43.61-26.27c2.62-2.51,4.24-6,7.6-7.78,0,6.11-3.56,10.57-7.3,14.78-10.22,11.49-22.93,19.46-37.06,25.19C762.37,297.54,762.55,292.22,761,289.41Z" transform="translate(-457.63 -121.6)"/><path class="cls-3" d="M720.09,291.31c11.84,2.53,23.62,3.1,35.24-1.19,4,8.84,4,8.82-5.28,11.23a131.71,131.71,0,0,1-23.44,3.9c-2.73.2-3.88-.61-4.3-3.28C721.75,298.39,720.84,294.86,720.09,291.31Z" transform="translate(-457.63 -121.6)"/><path class="cls-21" d="M576.06,337.31c-1.33-7.76.79-15.17,2.4-22.62.26-1.22,1.3-2.4,2.47-1.94,4.74,1.87,9.86,2.93,14,6.1.26.2.12.94.16,1.43a71.75,71.75,0,0,1-2.25,11C590.37,340,581.82,343,576.06,337.31Z" transform="translate(-457.63 -121.6)"/><path class="cls-22" d="M601.06,333.19c.76-4.35,2.73-6.08,7.45-4.51a94.18,94.18,0,0,0,26.9,4.3c5.35.16,9.11,1.82,11.62,6.44-.43,2.68-2.82,2.61-4.57,2.8-13,1.45-25.71.46-37.83-4.86C602.87,336.59,600.91,335.72,601.06,333.19Z" transform="translate(-457.63 -121.6)"/><path class="cls-23" d="M593,311.41c1.16-.21,2.41-.44,2.75-1.75,2.54-9.62,7-18.43,11.38-27.27.13-.26,0-.66,0-1,9.52,2.82,9.45,2.79,5.3,11.75-2.23,4.83-4.34,9.72-6.2,14.7s-3.29,10-5.31,15.07C601.85,316.43,598.36,313.25,593,311.41Z" transform="translate(-457.63 -121.6)"/><path class="cls-24" d="M673.2,147.51c-12.86.32-25.14,3.33-37.12,7.82-1.07.68-1.92.86-1.91-.87,9.88-5.65,20.66-8.43,31.83-10,1.78-.25,3.54-.67,5.3-1a78.18,78.18,0,0,1,21.66,0c7.88,1.59,15.93,2.32,23.61,5a82.8,82.8,0,0,1,17.44,8c.2.86.08,1.37-1,.9a100.88,100.88,0,0,0-41-9.93A105.25,105.25,0,0,1,673.2,147.51Z" transform="translate(-457.63 -121.6)"/><path class="cls-25" d="M655.13,270.21c16.74,5.06,33.54,4.42,50.39.56,6.73-1.54,13.13-4.07,19.58-6.45-9.68,8.28-21.33,12-33.59,13.56-16.74,2.12-32.72-.77-47.37-9.59-.22-.91,0-1.42,1-1Z" transform="translate(-457.63 -121.6)"/><path class="cls-26" d="M601.06,333.19c4.63,4.12,10.4,5.73,16.24,6.57,9.89,1.42,19.87,3.11,29.73-.34l6.27,6.26c-16,2.09-31.18,3.7-45.9-2.49C603.44,341.52,599.14,339.06,601.06,333.19Z" transform="translate(-457.63 -121.6)"/><path class="cls-18" d="M642.28,543.36c-.51-1.47,1.31-2.7.42-4.32-8.68,3.74-17.2,8-26.91,8.23-2,.05-2.29,2.24-3.82,2.85,1.57-4.85,4.19-9.31,5.15-14.37.43-2.28,2.1-2.73,4.13-2.53,7.06.7,14,2.27,21.16,2.29C646.07,535.52,646,538.7,642.28,543.36Z" transform="translate(-457.63 -121.6)"/><path class="cls-27" d="M590,524.34c-5-4.48-8-10.22-10.68-16,4.9,0,9.33.07,13.75,0,2,0,2.91,1,3.86,2.49,2.63,4.21,5.43,8.31,8.16,12.46C600.28,526.34,595.07,524.28,590,524.34Z" transform="translate(-457.63 -121.6)"/><path class="cls-28" d="M593,215.38c-.47-5.27-1.32-10.54-1.32-15.81,0-6.12,3.88-10.56,10.21-12.62-.21,2.2-.4,4.32-.6,6.45a115.43,115.43,0,0,1,0,18.87l0,1.95c.45,1.55,1,3.27-.54,4.4s-3.38.29-5-.51C594.51,217.51,593.87,216.35,593,215.38Z" transform="translate(-457.63 -121.6)"/><path class="cls-11" d="M763.15,208.3l-.18-9a15.39,15.39,0,0,0-.67-6.36A112.71,112.71,0,0,1,759,177.35c5.55-.22,10.78,4.38,11.79,10.48.29,1.77.27,3.59.39,5.38.79,3.25.49,6.56.27,9.8C771.18,207.42,767.67,209.46,763.15,208.3Z" transform="translate(-457.63 -121.6)"/><path class="cls-29" d="M581.74,465.45a9.4,9.4,0,0,0,.4,1.94c4.76,10.89-1.16,17.52-9.5,23.35A36.33,36.33,0,0,1,570,476.35C570.92,470.7,575.36,466.57,581.74,465.45Z" transform="translate(-457.63 -121.6)"/><path class="cls-30" d="M756,383.06c-.68,6.44-6.32,7.72-10.72,10.3-1.65,1-4,.7-5.05,2.73a61.53,61.53,0,0,0-13.15,2c-6,.8-10.75-1.88-15-5.69-2.12-5.72-4.76-11.14-9.35-15.41,2.7-1.84,3.85-.15,5,1.21,1.62,1.89,3.08,3.91,4.71,5.79,10.51,12.1,25.18,13.3,38.61,3.15C752.69,385.86,754.3,384.43,756,383.06Z" transform="translate(-457.63 -121.6)"/><path class="cls-31" d="M699.92,316.46c8.23-1,16.29-1.12,24.33-1.78,3.3-.27,4.47,2,4.8,5.09.41,3.84-2.57,2.18-4,2.48-3.37.71-7,.36-9.59,3.35-1.35,1.57-2.39.13-3.37-.55C708,322.23,704,319.33,699.92,316.46Z" transform="translate(-457.63 -121.6)"/><path class="cls-32" d="M537.22,545.08c3-.84,4.46-2.22,2.33-5.41-.57-.85-.3-2.26-.42-3.41,1.35-1.61,3.26-1.52,5-1.46,7.49.26,14.28-2.15,20.9-5.28l5.92-4.38C568.05,536.24,550.77,547.15,537.22,545.08Z" transform="translate(-457.63 -121.6)"/><path class="cls-33" d="M851.18,387.55c-.85,1-2,.63-3,.61-15.79-9.3-33.13-14-51-16.91-7.33-1.21-14.71-2.33-22.2-1.9-1-.42-2-1.16-1.68-2.15.49-1.45,2-.74,3.06-.7a167.84,167.84,0,0,1,57.15,12.05C839.63,381.05,845.73,383.68,851.18,387.55Z" transform="translate(-457.63 -121.6)"/><path class="cls-34" d="M600.44,428.21c-6.44-3.95-13.5-3.91-20.65-3.19A62.17,62.17,0,0,0,554,433.35c-1.64.76-3.18.65-5.17-.92,16.36-8.49,32.43-15.85,51-8.14C601.94,425.15,605.23,426.22,600.44,428.21Z" transform="translate(-457.63 -121.6)"/><path class="cls-35" d="M558.21,484.14c-6.37-2.17-12.73-2.42-19.08.11-1.29.72-2.48,1.81-3.94,2-8,.91-14.42,5.25-20.72,9.78a3.71,3.71,0,0,1-1.37.54c-.83-.18-1.44-.51-1.06-1.53C521.4,480.05,544.47,474.61,558.21,484.14Z" transform="translate(-457.63 -121.6)"/><path class="cls-36" d="M608.88,277.49,594.45,271c8.39-4.59,16.43-4.37,24.57-3.5C617.5,273.07,613.16,277.32,608.88,277.49Z" transform="translate(-457.63 -121.6)"/><path class="cls-37" d="M576.06,337.31c9.21,4.55,13.07-.33,16-7.26,1.31-3.14,2.07-6.51,3.08-9.77a53.46,53.46,0,0,1-3.67,19.47c-1.5,3.87-3.25,8.17-8.67,7.22C577.53,346.06,576.15,342,576.06,337.31Z" transform="translate(-457.63 -121.6)"/><path class="cls-38" d="M626.16,480.14a8.8,8.8,0,0,0-5-1c-1.86,1.21-3.89.5-5.83.45a39.65,39.65,0,0,0-30.44,12.35,25.11,25.11,0,0,1-6.55,5.28c-1.3,1.08-2.15,2.72-3.91,3.26,7.72-18.2,32.39-29.06,50.68-22.31C626.07,478.52,627.84,478.42,626.16,480.14Z" transform="translate(-457.63 -121.6)"/><path class="cls-37" d="M608.88,277.49c5.06-1.6,6.64-6.76,10.14-9.95a18.42,18.42,0,0,1,7.58,1.16c-2.53,4-5.12,7.78-7.44,11.77-1,1.76-2,1.24-3.22.61Q612.4,279.29,608.88,277.49Z" transform="translate(-457.63 -121.6)"/><path class="cls-39" d="M720.33,234.18c-2.27-1.67-3.79-3.75-3.29-6.72.58-3.45,2.45-5.87,6.17-5.92,4.61,0,5,3.36,5.1,6.84C727.45,233.82,725.6,235.17,720.33,234.18Z" transform="translate(-457.63 -121.6)"/><path class="cls-40" d="M760.91,410.3c-8.39-4.28-17-7-26.68-5.28-8.33,1.47-14.94,5.84-21.1,11.23.64-4.35,4.32-6.13,7.35-8.26C732.9,399.2,750.74,400.3,760.91,410.3Z" transform="translate(-457.63 -121.6)"/><path class="cls-41" d="M588.21,454.31c2,4.86,4.07,9.74,6.19,14.58.72,1.65,1.51,3.4,3.79,3.39l-8.69,3.87C588.72,468.67,585.73,461.74,588.21,454.31Z" transform="translate(-457.63 -121.6)"/><path class="cls-42" d="M763.15,208.3c6.27-1,8.09-3.12,7.93-9.25-.05-1.94.08-3.89.13-5.84,1.25,4.92,1,9.95.59,14.88-.41,4.57-3.27,7.85-7.27,10.15-2.62,1.51-2.69,0-2.57-1.92Z" transform="translate(-457.63 -121.6)"/><path class="cls-43" d="M593,215.38c1.16.57,2.37,1.05,3.46,1.72,3.55,2.2,4.93,1,4.75-2.89q1.56,7.23,3.13,14.45C597.49,228.31,593.09,223.13,593,215.38Z" transform="translate(-457.63 -121.6)"/><path class="cls-44" d="M712,392.42l.63-1.26c3.71,4.57,9.26,5.34,14.4,6.95a62.14,62.14,0,0,0-12.74,6.75C713.49,400.51,712.75,396.46,712,392.42Z" transform="translate(-457.63 -121.6)"/><path class="cls-45" d="M731.21,328.46a11.52,11.52,0,0,1,1.46,2.52c.59,2.23,1.44,5-.61,6.48s-3.4-1.21-4.94-2.2c-2.34-1.5-5.88-2.65-3.21-6.66C726.33,327.75,728.74,326.53,731.21,328.46Z" transform="translate(-457.63 -121.6)"/><path class="cls-46" d="M581.74,465.45c-4.59,2.89-9.51,5.44-11.72,10.9-1-6.7,1.77-10.67,11-15.53C582.29,462.19,581.83,463.85,581.74,465.45Z" transform="translate(-457.63 -121.6)"/><path class="cls-47" d="M590,524.34c4.88-2.42,10.08-.52,15.09-1.11,1.31,1.25,2.62,2.67-.33,3.29C599.63,527.61,594.44,528.39,590,524.34Z" transform="translate(-457.63 -121.6)"/><path class="cls-48" d="M654.22,337.23c5.13,1.82,9.36,5.2,13.89,8-.18,2.6-.72,4.55-3.63,1.9C661,344,656.79,341.42,654.22,337.23Z" transform="translate(-457.63 -121.6)"/><path class="cls-49" d="M495.21,526.2l-1.15,1c-1.07.59-1.91.75-1.81-.94,5.45-6.53,9.1-14.21,13.57-21.36a1.47,1.47,0,0,1,.94,1C504.5,513.61,501,520.54,495.21,526.2Z" transform="translate(-457.63 -121.6)"/><path class="cls-50" d="M492.25,526.31a1.87,1.87,0,0,0,1.81.94q-3.53,4.51-7.07,9a7.39,7.39,0,0,1-5.15.66Z" transform="translate(-457.63 -121.6)"/><path class="cls-51" d="M642.27,530.1l18.64,0,3.84.56V531H637.22Z" transform="translate(-457.63 -121.6)"/><path class="cls-52" d="M693,143.47l-21.66,0-.44-.23c-.44-.22-.81-.81-.19-.83,3.65-.12,7.3-.06,11-.07h11.94c.11,0,.21.15.32.24Z" transform="translate(-457.63 -121.6)"/><path class="cls-53" d="M669.18,138.51a134,134,0,0,1,25.88,0A80.54,80.54,0,0,1,669.18,138.51Z" transform="translate(-457.63 -121.6)"/><path class="cls-2" d="M759,177.35c1.62,5.1,3.17,10.21,3.27,15.63l-.48,4.31a94.76,94.76,0,0,0-3.52-17.77A1.92,1.92,0,0,1,759,177.35Z" transform="translate(-457.63 -121.6)"/><path class="cls-54" d="M603.18,471.38a43.6,43.6,0,0,1,16.92,0A33.9,33.9,0,0,1,603.18,471.38Z" transform="translate(-457.63 -121.6)"/><path class="cls-55" d="M634.17,154.46l1.91.87-11.94,7c-1,.49-1.13,0-.92-.86C626.69,158.87,630,156.05,634.17,154.46Z" transform="translate(-457.63 -121.6)"/><path class="cls-56" d="M733,157.4l1-.9A31,31,0,0,1,745.3,166Z" transform="translate(-457.63 -121.6)"/><path class="cls-57" d="M690,127.45l-15.78,0a7.47,7.47,0,0,1-1.43-.35c-.47-.21-.88-.67.08-.68,5.91,0,11.83,0,17.74,0,.1,0,.21.17.31.25Z" transform="translate(-457.63 -121.6)"/><path class="cls-58" d="M598.26,361.22c-.67-6.3-.28-12.61-.13-18.92C599.93,348.59,599.55,354.9,598.26,361.22Z" transform="translate(-457.63 -121.6)"/><path class="cls-59" d="M673.2,147.51a143.16,143.16,0,0,1,18.87,0A42.77,42.77,0,0,1,673.2,147.51Z" transform="translate(-457.63 -121.6)"/><path class="cls-60" d="M601.29,212.27a83.27,83.27,0,0,1,0-18.87A44.47,44.47,0,0,1,601.29,212.27Z" transform="translate(-457.63 -121.6)"/><path class="cls-61" d="M623.22,161.5l.92.86L615,170.44A28.34,28.34,0,0,1,623.22,161.5Z" transform="translate(-457.63 -121.6)"/><path class="cls-49" d="M512,495l.92,1.15c.84.91.24,1.73-.16,2.56-2.24,2.13-2.65,6-6.48,6.63l-.49-.4A33.87,33.87,0,0,1,512,495Z" transform="translate(-457.63 -121.6)"/><path class="cls-62" d="M708,413.1l-.09-12.58c2.73.74,1,2.83,1.11,4.21a89.41,89.41,0,0,1,.08,9c0,.11-.16.22-.24.33Z" transform="translate(-457.63 -121.6)"/><path class="cls-2" d="M720.33,234.18c4.43.5,6.78-1.87,8-5.8.75,5-3,8-8.18,6.62-.06,0-.1-.29-.07-.43A1.61,1.61,0,0,1,720.33,234.18Z" transform="translate(-457.63 -121.6)"/><path class="cls-9" d="M802.15,429.23c3,3.47,3.29,7.81,3.84,12.07C803.6,437.63,802.94,433.41,802.15,429.23Z" transform="translate(-457.63 -121.6)"/><path class="cls-63" d="M813.84,251.26q0-6.34,0-12.71A14.57,14.57,0,0,1,813.84,251.26Z" transform="translate(-457.63 -121.6)"/><path class="cls-64" d="M731.21,328.46l-7.29.14C726.29,325.63,728.71,325.29,731.21,328.46Z" transform="translate(-457.63 -121.6)"/><path class="cls-65" d="M761.34,360.46c-3.64,1.23-4.45-1.31-6.66-3.22C757.78,357.52,759.14,359,761.34,360.46Z" transform="translate(-457.63 -121.6)"/><path class="cls-66" d="M645.18,267.26l-1,1a8,8,0,0,1-5-3.89Z" transform="translate(-457.63 -121.6)"/><path class="cls-67" d="M661.35,352.77c2.2.44,3.37,1.7,5.12,3.59C663.31,356.51,661.83,355.71,661.35,352.77Z" transform="translate(-457.63 -121.6)"/><path class="cls-68" d="M796.44,375.31c6.44.27,12.47,1.73,17.38,6.24,1.19,1.1,2.72,2.25,1.85,4.22a4.29,4.29,0,0,1-4.46,2.54c-6.67-.15-13.08-1.89-19.58-3.06-3-.54-5.66-2.4-5.21-5.68s3.54-4.06,6.53-4.25C794.11,375.25,795.28,375.31,796.44,375.31Z" transform="translate(-457.63 -121.6)"/><path class="cls-69" d="M821.88,382.33c4.48.05,10.19,5.05,10.89,9.44.33,2.06-.66,3.94-2.42,3.17-4-1.73-8.6-2.51-11.41-6.38a4.52,4.52,0,0,1-.44-4.7C819.12,382.41,820.5,382.29,821.88,382.33Z" transform="translate(-457.63 -121.6)"/><path class="cls-70" d="M506.32,505.35l5.74-7.17a2.27,2.27,0,0,1,2.74,0c4.41,2.84,6.55,10.18,4.4,15.08-4,6.09-9,11.06-15.73,14.08-2.74-.48-5.68.46-8.26-1.16C498.87,519.23,503.51,512.77,506.32,505.35Z" transform="translate(-457.63 -121.6)"/><path class="cls-71" d="M519.2,513.28c.8-6.18-2.26-12.66-7.14-15.1l.9-2c7.18-7.37,16.11-10.88,26.17-11.91-7.26,7.49-11.84,16.79-17.2,25.56C521.15,511.07,520.67,512.56,519.2,513.28Z" transform="translate(-457.63 -121.6)"/><path class="cls-72" d="M565.07,529.52c-7.52,6.56-16.6,7.14-25.94,6.74A209.21,209.21,0,0,1,509,527.1c9.78-2.6,19.39-.72,28.79,1.73C547,531.21,555.91,532.48,565.07,529.52Z" transform="translate(-457.63 -121.6)"/><path class="cls-1" d="M755.93,456c-5.64,2.76-11.06,5.8-17.83,5.29-5.55-.42-10-3.25-14.86-5.26-10-10.79-12.32-21.28-7.09-32.58,5.12-11.06,19-17.15,30.75-13.45,12.71,4,21.24,16.6,18.87,28.7A30,30,0,0,1,755.93,456Z" transform="translate(-457.63 -121.6)"/><path class="cls-73" d="M578.36,497.22c10.77-14.85,27.88-22.07,42.82-18.08,1.93,1.73.51,2-1,2.62-11.33,4.47-22.62,9.07-34,13.53C583.72,496.28,581.46,498.52,578.36,497.22Z" transform="translate(-457.63 -121.6)"/><path class="cls-74" d="M724.07,448.09c-2.37-2-3.38-4.81-4.07-7.74-1.64-8.07,1.63-13.73,8.53-17.73,9.77-5.66,23-4.58,29.48,4.66a15.36,15.36,0,0,1,1.15,13C751.46,453,737.18,456.21,724.07,448.09Z" transform="translate(-457.63 -121.6)"/><path class="cls-75" d="M758,427.28c-3.87-2.16-7.18-5.17-11.81-6.15-9-1.89-16.3,1-22.59,7.22-3.37,3.32-3.88,7.56-3.61,12-3-9.83,2.72-20.66,12.72-24.2C743.1,412.47,754.05,417.3,758,427.28Z" transform="translate(-457.63 -121.6)"/><path class="cls-76" d="M724.07,448.09c2.32-.6,4.13.94,5.95,1.74,9.15,4,23.1-.27,27.85-10a3.38,3.38,0,0,1,.58-.68c.24.38.47.77.71,1.16-1.9,7.87-7,12.79-14.64,14.68C736.45,457,729.4,454.8,724.07,448.09Z" transform="translate(-457.63 -121.6)"/></svg>