<svg id="Layer_1" data-name="Layer 1" xmlns="http://www.w3.org/2000/svg" viewBox="0 0 360.8 190.2"><defs><style>.cls-1{fill:#fff;}</style></defs><path class="cls-1" d="M635,498.78H587c-8.71-35-17.46-70.07-26.55-106.52V498.67H515V309.05a18.53,18.53,0,0,1,2.47-.35c20.83,0,41.67.08,62.5-.12,3.75,0,4.27,2,4.94,4.67q12,48.72,24.19,97.41a10.8,10.8,0,0,0,2.51,5q4.2-16.79,8.39-33.56,8.61-34.65,17.2-69.3c.56-2.24.9-4.24,4.29-4.21,21.17.18,42.34.1,63.5.13a11.52,11.52,0,0,1,2.11.41v189.4H661.47V394.17l-.38-.17Z" transform="translate(-514.99 -308.58)"/><path class="cls-1" d="M826,309H875.8c-15.13,63.45-30.17,126.51-45.25,189.72H766.93L721.75,309.3a13.08,13.08,0,0,1,2.5-.59c14.49,0,29,.05,43.47-.1,3.11,0,3.81,1.37,4.35,4.05q12.82,64.11,25.85,128.19a2.4,2.4,0,0,0,1.29,1.78Q812.56,375.91,826,309Z" transform="translate(-514.99 -308.58)"/></svg>